<?xml version="1.0" encoding="UTF-8"?>
<svg xmlns="http://www.w3.org/2000/svg" width="13pt" height="10pt"
     viewBox="0 0 13 10" version="1.1">
    <g id="surface1">
        <path style=" stroke:none;fill-rule:evenodd;fill:rgb(74.117647%,23.921569%,26.666667%);fill-opacity:1;"
              d="M 0 0 L 18.523438 0 L 18.523438 0.757812 L 0 0.757812 Z M 0 1.519531 L 18.523438 1.519531 L 18.523438 2.277344 L 0 2.277344 Z M 0 3.035156 L 18.523438 3.035156 L 18.523438 3.796875 L 0 3.796875 Z M 0 4.554688 L 18.523438 4.554688 L 18.523438 5.316406 L 0 5.316406 Z M 0 6.074219 L 18.523438 6.074219 L 18.523438 6.832031 L 0 6.832031 Z M 0 7.589844 L 18.523438 7.589844 L 18.523438 8.347656 L 0 8.347656 Z M 0 9.109375 L 18.523438 9.109375 L 18.523438 9.867188 L 0 9.867188 Z M 0 9.109375 "/>
        <path style=" stroke:none;fill-rule:evenodd;fill:rgb(100%,100%,100%);fill-opacity:1;"
              d="M 0 0.757812 L 18.523438 0.757812 L 18.523438 1.519531 L 0 1.519531 Z M 0 2.277344 L 18.523438 2.277344 L 18.523438 3.035156 L 0 3.035156 Z M 0 3.796875 L 18.523438 3.796875 L 18.523438 4.554688 L 0 4.554688 Z M 0 5.316406 L 18.523438 5.316406 L 18.523438 6.074219 L 0 6.074219 Z M 0 6.832031 L 18.523438 6.832031 L 18.523438 7.589844 L 0 7.589844 Z M 0 8.347656 L 18.523438 8.347656 L 18.523438 9.109375 L 0 9.109375 Z M 0 8.347656 "/>
        <path style=" stroke:none;fill-rule:evenodd;fill:rgb(9.803922%,18.431373%,36.470588%);fill-opacity:1;"
              d="M 0 0 L 7.410156 0 L 7.410156 5.316406 L 0 5.316406 Z M 0 0 "/>
        <path style=" stroke:none;fill-rule:evenodd;fill:rgb(100%,100%,100%);fill-opacity:1;"
              d="M 0.617188 0.226562 L 0.6875 0.4375 L 0.902344 0.4375 L 0.726562 0.566406 L 0.792969 0.777344 L 0.617188 0.648438 L 0.441406 0.777344 L 0.507812 0.566406 L 0.332031 0.4375 L 0.550781 0.4375 Z M 1.851562 0.226562 L 1.917969 0.4375 L 2.136719 0.4375 L 1.960938 0.566406 L 2.027344 0.777344 L 1.851562 0.648438 L 1.675781 0.777344 L 1.742188 0.566406 L 1.566406 0.4375 L 1.785156 0.4375 Z M 3.085938 0.226562 L 3.15625 0.4375 L 3.371094 0.4375 L 3.195312 0.566406 L 3.261719 0.777344 L 3.085938 0.648438 L 2.910156 0.777344 L 2.976562 0.566406 L 2.800781 0.4375 L 3.019531 0.4375 Z M 4.324219 0.226562 L 4.390625 0.4375 L 4.609375 0.4375 L 4.429688 0.566406 L 4.5 0.777344 L 4.324219 0.648438 L 4.144531 0.777344 L 4.214844 0.566406 L 4.039062 0.4375 L 4.253906 0.4375 Z M 5.558594 0.226562 L 5.625 0.4375 L 5.84375 0.4375 L 5.667969 0.566406 L 5.734375 0.777344 L 5.558594 0.648438 L 5.382812 0.777344 L 5.449219 0.566406 L 5.273438 0.4375 L 5.488281 0.4375 Z M 6.792969 0.226562 L 6.859375 0.4375 L 7.078125 0.4375 L 6.902344 0.566406 L 6.96875 0.777344 L 6.792969 0.648438 L 6.617188 0.777344 L 6.683594 0.566406 L 6.507812 0.4375 L 6.726562 0.4375 Z M 1.238281 0.757812 L 1.300781 0.96875 L 1.519531 0.96875 L 1.34375 1.097656 L 1.410156 1.308594 L 1.238281 1.179688 L 1.0625 1.308594 L 1.125 1.097656 L 0.953125 0.96875 L 1.167969 0.96875 Z M 2.46875 0.757812 L 2.539062 0.96875 L 2.753906 0.96875 L 2.578125 1.097656 L 2.648438 1.308594 L 2.46875 1.179688 L 2.292969 1.308594 L 2.359375 1.097656 L 2.183594 0.96875 L 2.402344 0.96875 Z M 3.707031 0.757812 L 3.773438 0.96875 L 3.992188 0.96875 L 3.8125 1.097656 L 3.882812 1.308594 L 3.707031 1.179688 L 3.53125 1.308594 L 3.59375 1.097656 L 3.421875 0.96875 L 3.636719 0.96875 Z M 4.941406 0.757812 L 5.007812 0.96875 L 5.226562 0.96875 L 5.046875 1.097656 L 5.117188 1.308594 L 4.941406 1.179688 L 4.765625 1.308594 L 4.832031 1.097656 L 4.652344 0.96875 L 4.875 0.96875 Z M 6.175781 0.757812 L 6.242188 0.96875 L 6.460938 0.96875 L 6.285156 1.097656 L 6.351562 1.308594 L 6.175781 1.179688 L 6 1.308594 L 6.066406 1.097656 L 5.890625 0.96875 L 6.105469 0.96875 Z M 0.617188 1.289062 L 0.6875 1.503906 L 0.902344 1.503906 L 0.726562 1.632812 L 0.792969 1.84375 L 0.617188 1.710938 L 0.441406 1.84375 L 0.507812 1.628906 L 0.332031 1.5 L 0.550781 1.5 Z M 1.851562 1.289062 L 1.917969 1.5 L 2.136719 1.5 L 1.960938 1.628906 L 2.027344 1.839844 L 1.851562 1.707031 L 1.675781 1.839844 L 1.742188 1.628906 L 1.566406 1.5 L 1.785156 1.5 Z M 3.085938 1.289062 L 3.15625 1.5 L 3.371094 1.5 L 3.195312 1.628906 L 3.261719 1.839844 L 3.085938 1.707031 L 2.910156 1.839844 L 2.976562 1.628906 L 2.800781 1.5 L 3.019531 1.5 Z M 4.324219 1.289062 L 4.390625 1.5 L 4.609375 1.5 L 4.429688 1.628906 L 4.5 1.839844 L 4.324219 1.707031 L 4.144531 1.839844 L 4.214844 1.628906 L 4.039062 1.5 L 4.253906 1.5 Z M 5.558594 1.289062 L 5.625 1.5 L 5.84375 1.5 L 5.667969 1.628906 L 5.734375 1.839844 L 5.558594 1.707031 L 5.382812 1.839844 L 5.449219 1.628906 L 5.273438 1.5 L 5.488281 1.5 Z M 6.792969 1.289062 L 6.859375 1.5 L 7.078125 1.5 L 6.902344 1.628906 L 6.96875 1.839844 L 6.792969 1.707031 L 6.617188 1.839844 L 6.683594 1.628906 L 6.507812 1.5 L 6.726562 1.5 Z M 1.238281 1.820312 L 1.300781 2.03125 L 1.519531 2.03125 L 1.34375 2.160156 L 1.410156 2.371094 L 1.238281 2.242188 L 1.058594 2.371094 L 1.125 2.160156 L 0.949219 2.03125 L 1.167969 2.03125 Z M 2.46875 1.820312 L 2.539062 2.03125 L 2.753906 2.03125 L 2.578125 2.160156 L 2.648438 2.371094 L 2.46875 2.242188 L 2.292969 2.371094 L 2.359375 2.160156 L 2.183594 2.03125 L 2.402344 2.03125 Z M 3.707031 1.820312 L 3.773438 2.03125 L 3.992188 2.03125 L 3.8125 2.160156 L 3.882812 2.371094 L 3.707031 2.242188 L 3.53125 2.371094 L 3.59375 2.160156 L 3.421875 2.03125 L 3.636719 2.03125 Z M 4.941406 1.820312 L 5.007812 2.03125 L 5.226562 2.03125 L 5.050781 2.160156 L 5.117188 2.371094 L 4.941406 2.242188 L 4.765625 2.371094 L 4.832031 2.160156 L 4.652344 2.03125 L 4.875 2.03125 Z M 6.175781 1.820312 L 6.242188 2.03125 L 6.460938 2.03125 L 6.285156 2.160156 L 6.351562 2.371094 L 6.175781 2.242188 L 6 2.371094 L 6.066406 2.160156 L 5.890625 2.03125 L 6.105469 2.03125 Z M 0.617188 2.355469 L 0.6875 2.5625 L 0.902344 2.5625 L 0.726562 2.691406 L 0.792969 2.902344 L 0.617188 2.773438 L 0.441406 2.902344 L 0.507812 2.691406 L 0.332031 2.5625 L 0.550781 2.5625 Z M 1.851562 2.355469 L 1.917969 2.5625 L 2.136719 2.5625 L 1.960938 2.691406 L 2.027344 2.902344 L 1.851562 2.773438 L 1.675781 2.902344 L 1.742188 2.691406 L 1.566406 2.5625 L 1.785156 2.5625 Z M 3.085938 2.355469 L 3.15625 2.5625 L 3.371094 2.5625 L 3.195312 2.691406 L 3.261719 2.902344 L 3.085938 2.773438 L 2.910156 2.902344 L 2.976562 2.691406 L 2.800781 2.5625 L 3.019531 2.5625 Z M 4.324219 2.355469 L 4.390625 2.5625 L 4.609375 2.5625 L 4.429688 2.691406 L 4.5 2.902344 L 4.324219 2.773438 L 4.144531 2.902344 L 4.214844 2.691406 L 4.039062 2.5625 L 4.253906 2.5625 Z M 5.558594 2.355469 L 5.625 2.5625 L 5.84375 2.5625 L 5.667969 2.691406 L 5.734375 2.902344 L 5.558594 2.773438 L 5.382812 2.902344 L 5.449219 2.691406 L 5.273438 2.5625 L 5.488281 2.5625 Z M 6.792969 2.355469 L 6.859375 2.5625 L 7.078125 2.5625 L 6.902344 2.691406 L 6.96875 2.902344 L 6.792969 2.773438 L 6.617188 2.902344 L 6.683594 2.691406 L 6.507812 2.5625 L 6.726562 2.5625 Z M 1.238281 2.886719 L 1.300781 3.09375 L 1.519531 3.09375 L 1.34375 3.226562 L 1.410156 3.433594 L 1.238281 3.304688 L 1.058594 3.433594 L 1.125 3.222656 L 0.949219 3.09375 L 1.167969 3.09375 Z M 2.46875 2.886719 L 2.539062 3.09375 L 2.753906 3.09375 L 2.578125 3.226562 L 2.648438 3.433594 L 2.46875 3.304688 L 2.292969 3.433594 L 2.359375 3.222656 L 2.183594 3.09375 L 2.402344 3.09375 Z M 3.707031 2.886719 L 3.773438 3.09375 L 3.992188 3.09375 L 3.8125 3.226562 L 3.882812 3.433594 L 3.707031 3.304688 L 3.53125 3.433594 L 3.59375 3.222656 L 3.421875 3.09375 L 3.636719 3.09375 Z M 4.941406 2.886719 L 5.007812 3.09375 L 5.226562 3.09375 L 5.050781 3.226562 L 5.117188 3.433594 L 4.941406 3.304688 L 4.765625 3.433594 L 4.832031 3.222656 L 4.652344 3.09375 L 4.875 3.09375 Z M 6.175781 2.886719 L 6.242188 3.09375 L 6.460938 3.09375 L 6.285156 3.226562 L 6.351562 3.433594 L 6.175781 3.304688 L 6 3.433594 L 6.066406 3.222656 L 5.890625 3.09375 L 6.105469 3.09375 Z M 0.617188 3.414062 L 0.6875 3.628906 L 0.902344 3.628906 L 0.726562 3.757812 L 0.792969 3.964844 L 0.617188 3.835938 L 0.441406 3.964844 L 0.507812 3.753906 L 0.332031 3.625 L 0.550781 3.625 Z M 1.851562 3.414062 L 1.917969 3.628906 L 2.136719 3.628906 L 1.960938 3.757812 L 2.03125 3.964844 L 1.851562 3.835938 L 1.675781 3.964844 L 1.746094 3.753906 L 1.566406 3.625 L 1.785156 3.625 Z M 3.085938 3.414062 L 3.15625 3.628906 L 3.371094 3.628906 L 3.195312 3.757812 L 3.261719 3.964844 L 3.085938 3.835938 L 2.910156 3.964844 L 2.976562 3.753906 L 2.800781 3.625 L 3.019531 3.625 Z M 4.324219 3.414062 L 4.390625 3.628906 L 4.609375 3.628906 L 4.429688 3.757812 L 4.5 3.964844 L 4.324219 3.835938 L 4.144531 3.964844 L 4.214844 3.753906 L 4.039062 3.625 L 4.253906 3.625 Z M 5.558594 3.414062 L 5.625 3.628906 L 5.84375 3.628906 L 5.667969 3.757812 L 5.734375 3.964844 L 5.558594 3.835938 L 5.382812 3.964844 L 5.449219 3.753906 L 5.273438 3.625 L 5.488281 3.625 Z M 6.792969 3.414062 L 6.859375 3.628906 L 7.078125 3.628906 L 6.902344 3.757812 L 6.96875 3.964844 L 6.792969 3.835938 L 6.617188 3.964844 L 6.683594 3.753906 L 6.507812 3.625 L 6.726562 3.625 Z M 1.238281 3.949219 L 1.300781 4.15625 L 1.519531 4.15625 L 1.34375 4.285156 L 1.410156 4.5 L 1.238281 4.367188 L 1.058594 4.496094 L 1.125 4.285156 L 0.949219 4.15625 L 1.167969 4.15625 Z M 2.46875 3.949219 L 2.539062 4.15625 L 2.753906 4.15625 L 2.578125 4.285156 L 2.648438 4.5 L 2.46875 4.367188 L 2.292969 4.496094 L 2.359375 4.285156 L 2.183594 4.15625 L 2.402344 4.15625 Z M 3.707031 3.949219 L 3.773438 4.15625 L 3.992188 4.15625 L 3.8125 4.285156 L 3.882812 4.5 L 3.707031 4.367188 L 3.53125 4.496094 L 3.59375 4.285156 L 3.421875 4.15625 L 3.636719 4.15625 Z M 4.941406 3.949219 L 5.007812 4.15625 L 5.226562 4.15625 L 5.050781 4.285156 L 5.117188 4.5 L 4.941406 4.367188 L 4.765625 4.496094 L 4.832031 4.285156 L 4.652344 4.15625 L 4.875 4.15625 Z M 6.175781 3.949219 L 6.242188 4.15625 L 6.460938 4.15625 L 6.285156 4.285156 L 6.351562 4.5 L 6.175781 4.367188 L 6 4.496094 L 6.066406 4.285156 L 5.890625 4.15625 L 6.105469 4.15625 Z M 0.617188 4.480469 L 0.6875 4.691406 L 0.902344 4.691406 L 0.726562 4.820312 L 0.792969 5.027344 L 0.617188 4.898438 L 0.441406 5.027344 L 0.507812 4.816406 L 0.332031 4.6875 L 0.550781 4.6875 Z M 1.851562 4.480469 L 1.917969 4.691406 L 2.136719 4.691406 L 1.960938 4.820312 L 2.03125 5.027344 L 1.851562 4.898438 L 1.675781 5.027344 L 1.746094 4.816406 L 1.566406 4.6875 L 1.785156 4.6875 Z M 3.085938 4.480469 L 3.15625 4.691406 L 3.371094 4.691406 L 3.199219 4.820312 L 3.265625 5.027344 L 3.089844 4.898438 L 2.914062 5.027344 L 2.980469 4.816406 L 2.804688 4.6875 L 3.019531 4.6875 Z M 4.324219 4.480469 L 4.390625 4.691406 L 4.609375 4.691406 L 4.429688 4.820312 L 4.5 5.027344 L 4.324219 4.898438 L 4.144531 5.027344 L 4.214844 4.816406 L 4.039062 4.6875 L 4.253906 4.6875 Z M 5.558594 4.480469 L 5.625 4.691406 L 5.84375 4.691406 L 5.667969 4.820312 L 5.734375 5.027344 L 5.558594 4.898438 L 5.382812 5.027344 L 5.449219 4.816406 L 5.273438 4.6875 L 5.488281 4.6875 Z M 6.792969 4.480469 L 6.859375 4.691406 L 7.078125 4.691406 L 6.902344 4.820312 L 6.96875 5.027344 L 6.792969 4.898438 L 6.617188 5.027344 L 6.683594 4.816406 L 6.507812 4.6875 L 6.726562 4.6875 Z M 6.792969 4.480469 "/>
    </g>
</svg>
